# File created by Blade
# Date/Time:  Thu Sep 25 18:58:07 2014
# Frame Rate: 120.000 fps
#------------------------------------------------------
:FULLY-SPECIFIED
:DEGREES
1660
root 1.531506 32.836154 0.545828 9.501390 1.668509 -0.073547
Spine -8.268135 5.559048 -0.679070
Head -7.562824 -9.601546 11.018855
LeftShoulder 1.896312 7.970867 8.928949
LeftArm 42.459918 44.989513 -39.857599
LeftForeArm 11.315992 -0.000000 16.087889
LeftHand -20.046948 -0.000000 -23.296144
LeftHandThumb1 -26.253704 0.000000 33.147579
RightShoulder -9.826995 21.218201 -12.986223
RightArm 9.395538 -46.843903 72.686394
RightForeArm -26.562393 -0.000000 14.977908
RightHand -0.432567 -0.000000 23.072055
RightHandThumb1 -24.326973 -0.000000 -32.862282
LeftUpLeg -4.983933 10.340656 3.134521
LeftLeg -3.626803 -0.000000 0.000000
LeftFoot -4.474564 -3.782052 -17.515516
LeftToeBase 8.734029 -0.000000 -0.000000
RightUpLeg -4.965004 -11.688911 -5.749048
RightLeg -0.941402 -0.000000 0.000000
RightFoot -3.437705 -1.163164 3.422819
RightToeBase -2.839310 -0.000000 0.000000
1661
root 1.537178 32.835989 0.514085 9.463600 1.577418 -0.048285
Spine -8.256146 5.634114 -0.633794
Head -7.564837 -9.459074 10.923915
LeftShoulder 2.362840 7.287526 8.925425
LeftArm 43.682734 45.100572 -39.769182
LeftForeArm 11.761298 0.000000 16.142712
LeftHand -20.002182 -0.000000 -23.275998
LeftHandThumb1 -26.253704 0.000000 33.147579
RightShoulder -9.332734 21.730796 -12.938461
RightArm 10.511025 -46.581186 72.839409
RightForeArm -26.104236 0.000000 15.040016
RightHand -0.632757 -0.000000 22.791211
RightHandThumb1 -24.326973 -0.000000 -32.862282
LeftUpLeg -4.930634 10.220163 3.113323
LeftLeg -3.738963 -0.000000 0.000000
LeftFoot -4.425395 -3.585646 -17.566020
LeftToeBase 8.707757 -0.000000 -0.000000
RightUpLeg -5.005228 -11.575537 -5.798800
RightLeg -0.930661 -0.000000 0.000000
RightFoot -3.406330 -1.195630 3.404295
RightToeBase -2.869532 -0.000000 0.000000
1662
root 1.535725 32.836220 0.478822 9.443132 1.544068 -0.043963
Spine -8.243532 5.683991 -0.572773
Head -7.648797 -9.319330 10.872850
LeftShoulder 2.825333 6.650944 8.898115
LeftArm 45.319351 45.555076 -39.042541
LeftForeArm 11.806412 0.000000 16.355766
LeftHand -20.055951 -0.000000 -22.790384
LeftHandThumb1 -26.253704 0.000000 33.147579
RightShoulder -8.835420 22.239973 -12.900498
RightArm 11.630799 -46.393056 72.989645
RightForeArm -25.734561 -0.000000 15.051697
RightHand -0.637529 -0.000000 22.639368
RightHandThumb1 -24.326973 -0.000000 -32.862282
LeftUpLeg -4.977415 10.185312 3.101778
LeftLeg -3.708069 -0.000000 0.000000
LeftFoot -4.431246 -3.487676 -17.624777
LeftToeBase 8.752692 -0.000000 -0.000000
RightUpLeg -5.064899 -11.555893 -5.798248
RightLeg -0.909439 -0.000000 0.000000
RightFoot -3.387802 -1.181538 3.408864
RightToeBase -2.827403 -0.000000 0.000000
1663
root 1.537993 32.836254 0.453323 9.401814 1.538584 -0.060078
Spine -8.229971 5.755280 -0.466210
Head -7.700028 -9.260906 10.791992
LeftShoulder 3.361290 6.013932 8.889590
LeftArm 46.703468 45.769888 -38.809080
LeftForeArm 12.005759 -0.000000 16.351956
LeftHand -19.824171 -0.000000 -22.893598
LeftHandThumb1 -26.253704 0.000000 33.147579
RightShoulder -8.395316 22.734343 -12.909707
RightArm 12.712842 -46.286091 73.172349
RightForeArm -25.486612 -0.000000 15.083289
RightHand -0.868047 -0.000000 22.620589
RightHandThumb1 -24.326973 -0.000000 -32.862282
LeftUpLeg -4.984730 10.164315 3.112437
LeftLeg -3.690293 -0.000000 0.000000
LeftFoot -4.440389 -3.489694 -17.600360
LeftToeBase 8.892754 -0.000000 -0.000000
RightUpLeg -5.066129 -11.600427 -5.785814
RightLeg -0.917148 -0.000000 0.000000
RightFoot -3.326492 -1.176528 3.354904
RightToeBase -2.848799 -0.000000 0.000000
1664
root 1.540212 32.835743 0.425808 9.356806 1.498265 -0.061143
Spine -8.185066 5.828815 -0.399830
Head -7.846063 -9.194693 10.780199
LeftShoulder 3.886048 5.343277 8.895551
LeftArm 48.177683 46.151853 -38.432928
LeftForeArm 11.888158 -0.000000 16.324960
LeftHand -19.943038 -0.000000 -22.121078
LeftHandThumb1 -26.253704 0.000000 33.147579
RightShoulder -7.923598 23.229351 -12.892789
RightArm 13.820993 -46.140270 73.353979
RightForeArm -25.352179 0.000000 15.033859
RightHand -0.836181 0.000000 22.736221
RightHandThumb1 -24.326973 -0.000000 -32.862282
LeftUpLeg -4.983042 10.185797 3.111285
LeftLeg -3.713112 -0.000000 0.000000
LeftFoot -4.374243 -3.464714 -17.550498
LeftToeBase 8.720465 -0.000000 -0.000000
RightUpLeg -5.083116 -11.611610 -5.787410
RightLeg -0.921200 -0.000000 0.000000
RightFoot -3.289494 -1.089547 3.363232
RightToeBase -2.850367 -0.000000 0.000000
1665
root 1.542589 32.835117 0.396110 9.345640 1.467421 -0.066824
Spine -8.184637 5.900960 -0.337435
Head -7.953738 -9.080573 10.781760
LeftShoulder 4.410381 4.713731 8.932277
LeftArm 49.446206 46.331855 -38.411159
LeftForeArm 12.170826 0.000000 16.315557
LeftHand -19.739697 -0.000000 -22.430566
LeftHandThumb1 -26.253704 0.000000 33.147579
RightShoulder -7.448525 23.661708 -12.879489
RightArm 15.020652 -46.147449 73.441840
RightForeArm -25.151954 -0.000000 14.956779
RightHand -0.956381 -0.000000 22.661381
RightHandThumb1 -24.326973 -0.000000 -32.862282
LeftUpLeg -5.034135 10.193393 3.104296
LeftLeg -3.687223 -0.000000 0.000000
LeftFoot -4.358904 -3.445208 -17.597303
LeftToeBase 8.855658 -0.000000 -0.000000
RightUpLeg -5.141835 -11.596246 -5.780115
RightLeg -0.905361 -0.000000 0.000000
RightFoot -3.260696 -1.072183 3.351476
RightToeBase -2.880100 -0.000000 0.000000
1666
root 1.546176 32.834513 0.379704 9.251187 1.542353 -0.080564
Spine -8.095683 5.881222 -0.234664
Head -8.085749 -9.031638 10.791507
LeftShoulder 4.951380 4.083245 8.913386
LeftArm 50.758209 46.572014 -38.303241
LeftForeArm 12.122853 -0.000000 16.265027
LeftHand -19.854674 -0.000000 -22.524724
LeftHandThumb1 -26.253704 0.000000 33.147579
RightShoulder -6.999614 24.146671 -12.874332
RightArm 16.087163 -46.020943 73.661542
RightForeArm -25.063047 -0.000000 14.819089
RightHand -0.965919 0.000000 22.926204
RightHandThumb1 -24.326973 -0.000000 -32.862282
LeftUpLeg -5.005024 10.228761 3.114137
LeftLeg -3.642711 -0.000000 0.000000
LeftFoot -4.357780 -3.525946 -17.531705
LeftToeBase 8.760105 -0.000000 -0.000000
RightUpLeg -5.046383 -11.744707 -5.770094
RightLeg -0.945289 -0.000000 0.000000
RightFoot -3.205680 -0.992610 3.339260
RightToeBase -2.890017 -0.000000 0.000000
1667
root 1.550660 32.834404 0.351445 9.261698 1.560324 -0.069044
Spine -8.124242 5.939914 -0.195004
Head -8.201379 -8.947282 10.818573
LeftShoulder 5.540725 3.450933 8.938461
LeftArm 51.918698 46.832365 -38.406005
LeftForeArm 12.086155 -0.000000 16.183352
LeftHand -19.553386 0.000000 -22.387521
LeftHandThumb1 -26.253704 0.000000 33.147579
RightShoulder -6.548075 24.646149 -12.912344
RightArm 17.099067 -46.100468 73.862064
RightForeArm -25.253186 -0.000000 14.701610
RightHand -0.682762 -0.000000 23.060166
RightHandThumb1 -24.326973 -0.000000 -32.862282
LeftUpLeg -5.084240 10.203159 3.083803
LeftLeg -3.613876 -0.000000 0.000000
LeftFoot -4.337760 -3.502856 -17.510937
LeftToeBase 8.710426 -0.000000 -0.000000
RightUpLeg -5.108455 -11.736673 -5.784084
RightLeg -0.927091 -0.000000 0.000000
RightFoot -3.178918 -1.055877 3.305036
RightToeBase -2.876658 -0.000000 0.000000
1668
root 1.550622 32.834549 0.315563 9.269218 1.598698 -0.062434
Spine -8.103132 6.015643 -0.201711
Head -8.395434 -8.961933 10.964086
LeftShoulder 6.236686 2.734228 8.990806
LeftArm 52.985736 47.091861 -38.531212
LeftForeArm 12.124665 0.000000 16.142182
LeftHand -19.471096 -0.000000 -22.538705
LeftHandThumb1 -26.253704 0.000000 33.147579
RightShoulder -6.173494 25.105329 -12.891580
RightArm 18.295588 -46.320056 73.834885
RightForeArm -24.913019 -0.000000 14.599218
RightHand -0.593031 -0.000000 23.192911
RightHandThumb1 -24.326973 -0.000000 -32.862282
LeftUpLeg -5.145618 9.999797 3.096424
LeftLeg -3.640683 -0.000000 0.000000
LeftFoot -4.306695 -3.363217 -17.594576
LeftToeBase 8.701414 -0.000000 -0.000000
RightUpLeg -5.200323 -11.750913 -5.768852
RightLeg -0.881501 -0.000000 0.000000
RightFoot -3.177323 -1.067354 3.295426
RightToeBase -2.877706 -0.000000 0.000000
1669
root 1.550072 32.833767 0.298789 9.193023 1.590245 -0.024391
Spine -8.035972 6.121391 -0.280501
Head -8.558025 -8.972100 11.213670
LeftShoulder 6.853776 2.218312 9.089078
LeftArm 54.355435 47.302249 -38.405871
LeftForeArm 12.290876 -0.000000 16.034639
LeftHand -19.248142 -0.000000 -22.586827
LeftHandThumb1 -26.253704 0.000000 33.147579
RightShoulder -5.818148 25.517731 -12.856828
RightArm 19.474221 -46.598946 73.814980
RightForeArm -24.461916 0.000000 14.535141
RightHand -0.529704 -0.000000 23.420879
RightHandThumb1 -24.326973 -0.000000 -32.862282
LeftUpLeg -5.131846 10.225840 3.034692
LeftLeg -3.571665 -0.000000 0.000000
LeftFoot -4.264082 -3.599550 -17.530768
LeftToeBase 8.858895 -0.000000 -0.000000
RightUpLeg -5.147495 -11.721666 -5.822758
RightLeg -0.882376 -0.000000 0.000000
RightFoot -3.181880 -1.131193 3.248656
RightToeBase -2.881867 -0.000000 0.000000
1670
root 1.559489 32.833577 0.275910 9.130528 1.814573 -0.055468
Spine -7.954679 6.020048 -0.116029
Head -8.711591 -9.005133 11.199327
LeftShoulder 7.523827 1.620959 9.050231
LeftArm 55.597190 47.610592 -38.331744
LeftForeArm 12.496004 -0.000000 16.027642
LeftHand -19.173842 -0.000000 -22.821505
LeftHandThumb1 -26.253704 0.000000 33.147579
RightShoulder -5.455034 25.863850 -12.940164
RightArm 20.803911 -46.904823 73.621187
RightForeArm -24.073670 -0.000000 14.412677
RightHand -0.543877 -0.000000 23.402092
RightHandThumb1 -24.326973 -0.000000 -32.862282
LeftUpLeg -5.168300 10.069807 3.069732
LeftLeg -3.538953 -0.000000 0.000000
LeftFoot -4.238700 -3.597636 -17.472256
LeftToeBase 8.715172 -0.000000 -0.000000
RightUpLeg -5.072941 -11.966845 -5.786386
RightLeg -0.913487 -0.000000 0.000000
RightFoot -3.128029 -1.035481 3.355864
RightToeBase -2.855977 -0.000000 0.000000
1671
root 1.557232 32.833274 0.252048 9.149410 1.763267 -0.043004
Spine -7.992907 6.130466 -0.194690
Head -8.857474 -8.965612 11.455099
LeftShoulder 8.127437 1.130592 9.167657
LeftArm 56.889286 47.837428 -38.299615
LeftForeArm 12.799227 -0.000000 15.927177
LeftHand -19.316685 -0.000000 -22.655304
LeftHandThumb1 -26.253704 0.000000 33.147579
RightShoulder -5.067527 26.161743 -12.942789
RightArm 21.900752 -46.823500 73.781702
RightForeArm -23.899357 -0.000000 14.271639
RightHand -0.757112 -0.000000 23.052559
RightHandThumb1 -24.326973 -0.000000 -32.862282
LeftUpLeg -5.218730 10.219124 3.032065
LeftLeg -3.556129 -0.000000 0.000000
LeftFoot -4.165855 -3.680510 -17.456401
LeftToeBase 8.731516 -0.000000 -0.000000
RightUpLeg -5.155365 -11.856830 -5.794165
RightLeg -0.889985 -0.000000 0.000000
RightFoot -3.126457 -1.101319 3.362894
RightToeBase -2.874086 -0.000000 0.000000
